# xmcd CD database file
#
# Track frame offsets:
#	150
#	25907
#	46780
#	69120
#	93960
#	115790
#	138410
#	162567
#	192312
#	215602
#	238315
#	257815
#
# Disc length: 3776 seconds
#
# Revision: 1
# Processed by: cddbd v1.5PL3 Copyright (c) Steve Scherf et al.
# Submitted via: CDex 1.51
#
DISCID=a70ebe0c
DTITLE=Al Arthur - Mantis
DYEAR=2001
DGENRE=Jazz
TTITLE0=Mantis
TTITLE1=Snake
TTITLE2=Be Funky
TTITLE3=I Got to Have You
TTITLE4=Crazy Eights
TTITLE5=Love Desire
TTITLE6=Crying Again
TTITLE7=Keeping the Beat
TTITLE8=Cool Breeze
TTITLE9=That's Why I Love You So
TTITLE10=Questions
TTITLE11=Night Flight
EXTD=YEAR: 2001
EXTT0=
EXTT1=
EXTT2=
EXTT3=
EXTT4=
EXTT5=
EXTT6=
EXTT7=
EXTT8=
EXTT9=
EXTT10=
EXTT11=
PLAYORDER=
